<svg width="37" height="30" viewBox="0 0 37 30" fill="none" xmlns="http://www.w3.org/2000/svg">
<g id="itc-logo" clip-path="url(#clip0_26_29)">
<path id="Vector" d="M3.8275 29.9998H6.71754V16.6787H0.00134277V26.204C0.00134271 27.2105 0.404411 28.1758 1.12191 28.8876C1.83942 29.5994 2.81261 29.9995 3.8275 29.9998Z" fill="white" fill-opacity="0.8"/>
<path id="Vector_2" d="M37 14.9827H15.1426V29.9999H8.4264V14.9827H0V12.1166C0 11.1099 0.403257 10.1444 1.12106 9.43257C1.83886 8.72072 2.81241 8.3208 3.82754 8.3208H30.2637L37 14.9827Z" fill="white" fill-opacity="0.8"/>
<path id="Vector_3" d="M37 23.3382L30.2638 29.9988H20.5377C20.0533 29.9989 19.5737 29.9043 19.1261 29.7205C18.6786 29.5367 18.272 29.2673 17.9295 28.9276C17.5869 28.5879 17.3153 28.1847 17.1299 27.7408C16.9446 27.297 16.8493 26.8213 16.8494 26.341V16.6763H23.5656V23.3368L37 23.3382Z" fill="white" fill-opacity="0.8"/>
<path id="Vector_4" d="M15.1426 4.95148V6.6276H8.42505V0L15.1426 4.95148Z" fill="white" fill-opacity="0.8"/>
</g>
<defs>
<clipPath id="clip0_26_29">
<rect width="37" height="30" fill="white"/>
</clipPath>
</defs>
</svg>
